<?xml version="1.0" encoding="UTF-8" standalone="no"?>
<!DOCTYPE svg PUBLIC "-//W3C//DTD SVG 1.1//EN"
 "http://www.w3.org/Graphics/SVG/1.1/DTD/svg11.dtd">
<!-- Generated by graphviz version 2.40.1 (20161225.0304)
 -->
<!-- Title: G Pages: 1 -->
<svg width="154pt" height="186pt"
 viewBox="0.00 0.00 154.00 186.00" xmlns="http://www.w3.org/2000/svg" xmlns:xlink="http://www.w3.org/1999/xlink">
<g id="graph0" class="graph" transform="scale(1 1) rotate(0) translate(4 182)">
<title>G</title>
<polygon fill="#ffffff" stroke="transparent" points="-4,4 -4,-182 150,-182 150,4 -4,4"/>
<g id="clust1" class="cluster">
<title>cluster_Global</title>
<path fill="none" stroke="#c0c0c0" d="M20,-8C20,-8 126,-8 126,-8 132,-8 138,-14 138,-20 138,-20 138,-158 138,-158 138,-164 132,-170 126,-170 126,-170 20,-170 20,-170 14,-170 8,-164 8,-158 8,-158 8,-20 8,-20 8,-14 14,-8 20,-8"/>
<text text-anchor="middle" x="73" y="-157.2" font-family="Times,serif" font-size="11.00" fill="#c0c0c0">Global</text>
</g>
<g id="clust2" class="cluster">
<title>cluster_\HEXONET</title>
<path fill="none" stroke="#c0c0c0" d="M28,-16C28,-16 118,-16 118,-16 124,-16 130,-22 130,-28 130,-28 130,-130 130,-130 130,-136 124,-142 118,-142 118,-142 28,-142 28,-142 22,-142 16,-136 16,-130 16,-130 16,-28 16,-28 16,-22 22,-16 28,-16"/>
<text text-anchor="middle" x="73" y="-129.2" font-family="Times,serif" font-size="11.00" fill="#c0c0c0">HEXONET</text>
</g>
<!-- \\HEXONET\\Column -->
<g id="node1" class="node">
<title>\\HEXONET\\Column</title>
<polygon fill="none" stroke="#000000" points="101.5,-114 44.5,-114 44.5,-78 101.5,-78 101.5,-114"/>
<text text-anchor="middle" x="73" y="-93.2" font-family="Courier,monospace" font-size="11.00" fill="#000000">Column</text>
</g>
<!-- \\HEXONET\\SocketConfig -->
<g id="node2" class="node">
<title>\\HEXONET\\SocketConfig</title>
<polygon fill="none" stroke="#000000" points="122,-60 24,-60 24,-24 122,-24 122,-60"/>
<text text-anchor="middle" x="73" y="-39.2" font-family="Courier,monospace" font-size="11.00" fill="#000000">SocketConfig</text>
</g>
</g>
</svg>
