<?xml version="1.0" encoding="UTF-8" standalone="no"?>
<!DOCTYPE svg PUBLIC "-//W3C//DTD SVG 1.1//EN"
 "http://www.w3.org/Graphics/SVG/1.1/DTD/svg11.dtd">
<!-- Generated by graphviz version 2.38.0 (20140413.2041)
 -->
<!-- Title: G Pages: 1 -->
<svg width="425pt" height="456pt"
 viewBox="0.00 0.00 425.00 456.00" xmlns="http://www.w3.org/2000/svg" xmlns:xlink="http://www.w3.org/1999/xlink">
<g id="graph0" class="graph" transform="scale(1 1) rotate(0) translate(4 452)">
<title>G</title>
<polygon fill="white" stroke="none" points="-4,4 -4,-452 421,-452 421,4 -4,4"/>
<g id="clust1" class="cluster"><title>cluster_Global</title>
<path fill="none" stroke="gray" d="M20,-8C20,-8 397,-8 397,-8 403,-8 409,-14 409,-20 409,-20 409,-428 409,-428 409,-434 403,-440 397,-440 397,-440 20,-440 20,-440 14,-440 8,-434 8,-428 8,-428 8,-20 8,-20 8,-14 14,-8 20,-8"/>
<text text-anchor="middle" x="208.5" y="-427.2" font-family="Times,serif" font-size="11.00" fill="gray">Global</text>
</g>
<g id="clust2" class="cluster"><title>cluster_\HEXONET</title>
<path fill="none" stroke="gray" d="M28,-16C28,-16 389,-16 389,-16 395,-16 401,-22 401,-28 401,-28 401,-400 401,-400 401,-406 395,-412 389,-412 389,-412 28,-412 28,-412 22,-412 16,-406 16,-400 16,-400 16,-28 16,-28 16,-22 22,-16 28,-16"/>
<text text-anchor="middle" x="208.5" y="-399.2" font-family="Times,serif" font-size="11.00" fill="gray">HEXONET</text>
</g>
<!-- \\HEXONET\\APIClient -->
<g id="node1" class="node"><title>\\HEXONET\\APIClient</title>
<polygon fill="none" stroke="black" points="345.5,-384 268.5,-384 268.5,-348 345.5,-348 345.5,-384"/>
<text text-anchor="middle" x="307" y="-363.2" font-family="Courier,monospace" font-size="11.00">APIClient</text>
</g>
<!-- \\HEXONET\\Column -->
<g id="node2" class="node"><title>\\HEXONET\\Column</title>
<polygon fill="none" stroke="black" points="335.5,-330 278.5,-330 278.5,-294 335.5,-294 335.5,-330"/>
<text text-anchor="middle" x="307" y="-309.2" font-family="Courier,monospace" font-size="11.00">Column</text>
</g>
<!-- \\HEXONET\\Record -->
<g id="node3" class="node"><title>\\HEXONET\\Record</title>
<polygon fill="none" stroke="black" points="335.5,-276 278.5,-276 278.5,-240 335.5,-240 335.5,-276"/>
<text text-anchor="middle" x="307" y="-255.2" font-family="Courier,monospace" font-size="11.00">Record</text>
</g>
<!-- \\HEXONET\\Response -->
<g id="node4" class="node"><title>\\HEXONET\\Response</title>
<polygon fill="none" stroke="black" points="342.5,-222 271.5,-222 271.5,-186 342.5,-186 342.5,-222"/>
<text text-anchor="middle" x="307" y="-201.2" font-family="Courier,monospace" font-size="11.00">Response</text>
</g>
<!-- \\HEXONET\\ResponseTemplate -->
<g id="node6" class="node"><title>\\HEXONET\\ResponseTemplate</title>
<polygon fill="none" stroke="black" points="149,-222 24,-222 24,-186 149,-186 149,-222"/>
<text text-anchor="middle" x="86.5" y="-201.2" font-family="Courier,monospace" font-size="11.00">ResponseTemplate</text>
</g>
<!-- \\HEXONET\\Response&#45;&gt;\\HEXONET\\ResponseTemplate -->
<g id="edge1" class="edge"><title>\\HEXONET\\Response&#45;&gt;\\HEXONET\\ResponseTemplate</title>
<path fill="none" stroke="black" d="M271.378,-204C241.46,-204 197.239,-204 159.661,-204"/>
<polygon fill="none" stroke="black" points="159.255,-200.5 149.255,-204 159.255,-207.5 159.255,-200.5"/>
</g>
<!-- \\HEXONET\\ResponseParser -->
<g id="node5" class="node"><title>\\HEXONET\\ResponseParser</title>
<polygon fill="none" stroke="black" points="362.5,-168 251.5,-168 251.5,-132 362.5,-132 362.5,-168"/>
<text text-anchor="middle" x="307" y="-147.2" font-family="Courier,monospace" font-size="11.00">ResponseParser</text>
</g>
<!-- \\HEXONET\\ResponseTemplateManager -->
<g id="node7" class="node"><title>\\HEXONET\\ResponseTemplateManager</title>
<polygon fill="none" stroke="black" points="393,-114 221,-114 221,-78 393,-78 393,-114"/>
<text text-anchor="middle" x="307" y="-93.2" font-family="Courier,monospace" font-size="11.00">ResponseTemplateManager</text>
</g>
<!-- \\HEXONET\\SocketConfig -->
<g id="node8" class="node"><title>\\HEXONET\\SocketConfig</title>
<polygon fill="none" stroke="black" points="356,-60 258,-60 258,-24 356,-24 356,-60"/>
<text text-anchor="middle" x="307" y="-39.2" font-family="Courier,monospace" font-size="11.00">SocketConfig</text>
</g>
</g>
</svg>
