<?xml version="1.0" encoding="UTF-8" standalone="no"?>
<!DOCTYPE svg PUBLIC "-//W3C//DTD SVG 1.1//EN"
 "http://www.w3.org/Graphics/SVG/1.1/DTD/svg11.dtd">
<!-- Generated by graphviz version 2.36.0 (20140111.2315)
 -->
<!-- Title: G Pages: 1 -->
<svg width="426pt" height="456pt"
 viewBox="0.00 0.00 426.00 456.00" xmlns="http://www.w3.org/2000/svg" xmlns:xlink="http://www.w3.org/1999/xlink">
<g id="graph0" class="graph" transform="scale(1 1) rotate(0) translate(4 452)">
<title>G</title>
<polygon fill="white" stroke="none" points="-4,4 -4,-452 422,-452 422,4 -4,4"/>
<g id="clust1" class="cluster"><title>cluster_Global</title>
<path fill="none" stroke="gray" d="M20,-8C20,-8 398,-8 398,-8 404,-8 410,-14 410,-20 410,-20 410,-428 410,-428 410,-434 404,-440 398,-440 398,-440 20,-440 20,-440 14,-440 8,-434 8,-428 8,-428 8,-20 8,-20 8,-14 14,-8 20,-8"/>
<text text-anchor="middle" x="209" y="-427.2" font-family="Times,serif" font-size="11.00" fill="gray">Global</text>
</g>
<g id="clust2" class="cluster"><title>cluster_\HEXONET</title>
<path fill="none" stroke="gray" d="M28,-16C28,-16 390,-16 390,-16 396,-16 402,-22 402,-28 402,-28 402,-400 402,-400 402,-406 396,-412 390,-412 390,-412 28,-412 28,-412 22,-412 16,-406 16,-400 16,-400 16,-28 16,-28 16,-22 22,-16 28,-16"/>
<text text-anchor="middle" x="209" y="-399.2" font-family="Times,serif" font-size="11.00" fill="gray">HEXONET</text>
</g>
<!-- \\HEXONET\\APIClient -->
<g id="node1" class="node"><title>\\HEXONET\\APIClient</title>
<polygon fill="none" stroke="black" points="346.5,-384 269.5,-384 269.5,-348 346.5,-348 346.5,-384"/>
<text text-anchor="middle" x="308" y="-363.2" font-family="Courier,monospace" font-size="11.00">APIClient</text>
</g>
<!-- \\HEXONET\\Column -->
<g id="node2" class="node"><title>\\HEXONET\\Column</title>
<polygon fill="none" stroke="black" points="336.5,-330 279.5,-330 279.5,-294 336.5,-294 336.5,-330"/>
<text text-anchor="middle" x="308" y="-309.2" font-family="Courier,monospace" font-size="11.00">Column</text>
</g>
<!-- \\HEXONET\\Record -->
<g id="node3" class="node"><title>\\HEXONET\\Record</title>
<polygon fill="none" stroke="black" points="336.5,-276 279.5,-276 279.5,-240 336.5,-240 336.5,-276"/>
<text text-anchor="middle" x="308" y="-255.2" font-family="Courier,monospace" font-size="11.00">Record</text>
</g>
<!-- \\HEXONET\\Response -->
<g id="node4" class="node"><title>\\HEXONET\\Response</title>
<polygon fill="none" stroke="black" points="343.5,-222 272.5,-222 272.5,-186 343.5,-186 343.5,-222"/>
<text text-anchor="middle" x="308" y="-201.2" font-family="Courier,monospace" font-size="11.00">Response</text>
</g>
<!-- \\HEXONET\\ResponseTemplate -->
<g id="node6" class="node"><title>\\HEXONET\\ResponseTemplate</title>
<polygon fill="none" stroke="black" points="149.5,-222 24.5,-222 24.5,-186 149.5,-186 149.5,-222"/>
<text text-anchor="middle" x="87" y="-201.2" font-family="Courier,monospace" font-size="11.00">ResponseTemplate</text>
</g>
<!-- \\HEXONET\\Response&#45;&gt;\\HEXONET\\ResponseTemplate -->
<g id="edge1" class="edge"><title>\\HEXONET\\Response&#45;&gt;\\HEXONET\\ResponseTemplate</title>
<path fill="none" stroke="black" d="M272.299,-204C242.312,-204 197.99,-204 160.326,-204"/>
<polygon fill="none" stroke="black" points="159.897,-200.5 149.897,-204 159.897,-207.5 159.897,-200.5"/>
</g>
<!-- \\HEXONET\\ResponseParser -->
<g id="node5" class="node"><title>\\HEXONET\\ResponseParser</title>
<polygon fill="none" stroke="black" points="363.5,-168 252.5,-168 252.5,-132 363.5,-132 363.5,-168"/>
<text text-anchor="middle" x="308" y="-147.2" font-family="Courier,monospace" font-size="11.00">ResponseParser</text>
</g>
<!-- \\HEXONET\\ResponseTemplateManager -->
<g id="node7" class="node"><title>\\HEXONET\\ResponseTemplateManager</title>
<polygon fill="none" stroke="black" points="394,-114 222,-114 222,-78 394,-78 394,-114"/>
<text text-anchor="middle" x="308" y="-93.2" font-family="Courier,monospace" font-size="11.00">ResponseTemplateManager</text>
</g>
<!-- \\HEXONET\\SocketConfig -->
<g id="node8" class="node"><title>\\HEXONET\\SocketConfig</title>
<polygon fill="none" stroke="black" points="357,-60 259,-60 259,-24 357,-24 357,-60"/>
<text text-anchor="middle" x="308" y="-39.2" font-family="Courier,monospace" font-size="11.00">SocketConfig</text>
</g>
</g>
</svg>
