<?xml version="1.0" encoding="UTF-8" standalone="no"?>
<!DOCTYPE svg PUBLIC "-//W3C//DTD SVG 1.1//EN"
 "http://www.w3.org/Graphics/SVG/1.1/DTD/svg11.dtd">
<!-- Generated by graphviz version 2.40.1 (20161225.0304)
 -->
<!-- Title: G Pages: 1 -->
<svg width="425pt" height="456pt"
 viewBox="0.00 0.00 425.00 456.00" xmlns="http://www.w3.org/2000/svg" xmlns:xlink="http://www.w3.org/1999/xlink">
<g id="graph0" class="graph" transform="scale(1 1) rotate(0) translate(4 452)">
<title>G</title>
<polygon fill="#ffffff" stroke="transparent" points="-4,4 -4,-452 421,-452 421,4 -4,4"/>
<g id="clust1" class="cluster">
<title>cluster_Global</title>
<path fill="none" stroke="#c0c0c0" d="M20,-8C20,-8 397,-8 397,-8 403,-8 409,-14 409,-20 409,-20 409,-428 409,-428 409,-434 403,-440 397,-440 397,-440 20,-440 20,-440 14,-440 8,-434 8,-428 8,-428 8,-20 8,-20 8,-14 14,-8 20,-8"/>
<text text-anchor="middle" x="208.5" y="-427.2" font-family="Times,serif" font-size="11.00" fill="#c0c0c0">Global</text>
</g>
<g id="clust2" class="cluster">
<title>cluster_\HEXONET</title>
<path fill="none" stroke="#c0c0c0" d="M28,-16C28,-16 389,-16 389,-16 395,-16 401,-22 401,-28 401,-28 401,-400 401,-400 401,-406 395,-412 389,-412 389,-412 28,-412 28,-412 22,-412 16,-406 16,-400 16,-400 16,-28 16,-28 16,-22 22,-16 28,-16"/>
<text text-anchor="middle" x="208.5" y="-399.2" font-family="Times,serif" font-size="11.00" fill="#c0c0c0">HEXONET</text>
</g>
<!-- \\HEXONET\\SocketConfig -->
<g id="node1" class="node">
<title>\\HEXONET\\SocketConfig</title>
<polygon fill="none" stroke="#000000" points="356,-384 258,-384 258,-348 356,-348 356,-384"/>
<text text-anchor="middle" x="307" y="-363.2" font-family="Courier,monospace" font-size="11.00" fill="#000000">SocketConfig</text>
</g>
<!-- \\HEXONET\\Response -->
<g id="node2" class="node">
<title>\\HEXONET\\Response</title>
<polygon fill="none" stroke="#000000" points="342.5,-330 271.5,-330 271.5,-294 342.5,-294 342.5,-330"/>
<text text-anchor="middle" x="307" y="-309.2" font-family="Courier,monospace" font-size="11.00" fill="#000000">Response</text>
</g>
<!-- \\HEXONET\\ResponseTemplate -->
<g id="node5" class="node">
<title>\\HEXONET\\ResponseTemplate</title>
<polygon fill="none" stroke="#000000" points="149,-330 24,-330 24,-294 149,-294 149,-330"/>
<text text-anchor="middle" x="86.5" y="-309.2" font-family="Courier,monospace" font-size="11.00" fill="#000000">ResponseTemplate</text>
</g>
<!-- \\HEXONET\\Response&#45;&gt;\\HEXONET\\ResponseTemplate -->
<g id="edge1" class="edge">
<title>\\HEXONET\\Response&#45;&gt;\\HEXONET\\ResponseTemplate</title>
<path fill="none" stroke="#000000" d="M271.0821,-312C240.9646,-312 196.9945,-312 159.5242,-312"/>
<polygon fill="none" stroke="#000000" points="159.145,-308.5001 149.145,-312 159.1449,-315.5001 159.145,-308.5001"/>
</g>
<!-- \\HEXONET\\Column -->
<g id="node3" class="node">
<title>\\HEXONET\\Column</title>
<polygon fill="none" stroke="#000000" points="335.5,-276 278.5,-276 278.5,-240 335.5,-240 335.5,-276"/>
<text text-anchor="middle" x="307" y="-255.2" font-family="Courier,monospace" font-size="11.00" fill="#000000">Column</text>
</g>
<!-- \\HEXONET\\APIClient -->
<g id="node4" class="node">
<title>\\HEXONET\\APIClient</title>
<polygon fill="none" stroke="#000000" points="345.5,-222 268.5,-222 268.5,-186 345.5,-186 345.5,-222"/>
<text text-anchor="middle" x="307" y="-201.2" font-family="Courier,monospace" font-size="11.00" fill="#000000">APIClient</text>
</g>
<!-- \\HEXONET\\Record -->
<g id="node6" class="node">
<title>\\HEXONET\\Record</title>
<polygon fill="none" stroke="#000000" points="335.5,-168 278.5,-168 278.5,-132 335.5,-132 335.5,-168"/>
<text text-anchor="middle" x="307" y="-147.2" font-family="Courier,monospace" font-size="11.00" fill="#000000">Record</text>
</g>
<!-- \\HEXONET\\ResponseParser -->
<g id="node7" class="node">
<title>\\HEXONET\\ResponseParser</title>
<polygon fill="none" stroke="#000000" points="362.5,-114 251.5,-114 251.5,-78 362.5,-78 362.5,-114"/>
<text text-anchor="middle" x="307" y="-93.2" font-family="Courier,monospace" font-size="11.00" fill="#000000">ResponseParser</text>
</g>
<!-- \\HEXONET\\ResponseTemplateManager -->
<g id="node8" class="node">
<title>\\HEXONET\\ResponseTemplateManager</title>
<polygon fill="none" stroke="#000000" points="393,-60 221,-60 221,-24 393,-24 393,-60"/>
<text text-anchor="middle" x="307" y="-39.2" font-family="Courier,monospace" font-size="11.00" fill="#000000">ResponseTemplateManager</text>
</g>
</g>
</svg>
