<?xml version="1.0" encoding="UTF-8" standalone="no"?>
<!DOCTYPE svg PUBLIC "-//W3C//DTD SVG 1.1//EN"
 "http://www.w3.org/Graphics/SVG/1.1/DTD/svg11.dtd">
<!-- Generated by graphviz version 2.38.0 (20140413.2041)
 -->
<!-- Title: G Pages: 1 -->
<svg width="140pt" height="240pt"
 viewBox="0.00 0.00 140.00 240.00" xmlns="http://www.w3.org/2000/svg" xmlns:xlink="http://www.w3.org/1999/xlink">
<g id="graph0" class="graph" transform="scale(1 1) rotate(0) translate(4 236)">
<title>G</title>
<polygon fill="white" stroke="none" points="-4,4 -4,-236 136,-236 136,4 -4,4"/>
<g id="clust1" class="cluster"><title>cluster_Global</title>
<path fill="none" stroke="gray" d="M20,-8C20,-8 112,-8 112,-8 118,-8 124,-14 124,-20 124,-20 124,-212 124,-212 124,-218 118,-224 112,-224 112,-224 20,-224 20,-224 14,-224 8,-218 8,-212 8,-212 8,-20 8,-20 8,-14 14,-8 20,-8"/>
<text text-anchor="middle" x="66" y="-211.2" font-family="Times,serif" font-size="11.00" fill="gray">Global</text>
</g>
<g id="clust2" class="cluster"><title>cluster_\HEXONET</title>
<path fill="none" stroke="gray" d="M28,-16C28,-16 104,-16 104,-16 110,-16 116,-22 116,-28 116,-28 116,-184 116,-184 116,-190 110,-196 104,-196 104,-196 28,-196 28,-196 22,-196 16,-190 16,-184 16,-184 16,-28 16,-28 16,-22 22,-16 28,-16"/>
<text text-anchor="middle" x="66" y="-183.2" font-family="Times,serif" font-size="11.00" fill="gray">HEXONET</text>
</g>
<!-- \\HEXONET\\Response -->
<g id="node1" class="node"><title>\\HEXONET\\Response</title>
<polygon fill="none" stroke="black" points="101.5,-168 30.5,-168 30.5,-132 101.5,-132 101.5,-168"/>
<text text-anchor="middle" x="66" y="-147.2" font-family="Courier,monospace" font-size="11.00">Response</text>
</g>
<!-- \\HEXONET\\Connection -->
<g id="node2" class="node"><title>\\HEXONET\\Connection</title>
<polygon fill="none" stroke="black" points="108,-114 24,-114 24,-78 108,-78 108,-114"/>
<text text-anchor="middle" x="66" y="-93.2" font-family="Courier,monospace" font-size="11.00">Connection</text>
</g>
<!-- \\HEXONET\\Util -->
<g id="node3" class="node"><title>\\HEXONET\\Util</title>
<polygon fill="none" stroke="black" points="93,-60 39,-60 39,-24 93,-24 93,-60"/>
<text text-anchor="middle" x="66" y="-39.2" font-family="Courier,monospace" font-size="11.00">Util</text>
</g>
</g>
</svg>
